<svg xmlns="http://www.w3.org/2000/svg" viewBox="0 0 100 100" role="img" aria-labelledby="title desc">
  <title id="title">Wave logo</title>
  <desc id="desc">A blue ocean wave logo for Wu Su's academic website</desc>
  <rect width="100" height="100" rx="22" fill="#f4fbff"/>
  <path d="M15 58c10-18 27-28 45-25 13 2 23 10 27 22-8-8-18-10-29-6-9 3-15 10-23 15-8 5-16 5-20-6z" fill="#0f5fa8"/>
  <path d="M14 65c13 10 30 12 48 5 10-4 18-10 25-18-2 20-17 35-38 38-15 2-28-3-35-25z" fill="#1aa6d9"/>
  <path d="M26 55c10-11 22-15 34-12 6 2 11 5 15 10-11-4-20-2-28 5-8 7-15 9-21-3z" fill="#ffffff" opacity=".9"/>
</svg>
